<svg version="1.1" xmlns="http://www.w3.org/2000/svg" xmlns:xlink="http://www.w3.org/1999/xlink" width="420.2353515625" height="281"><defs/><g><text fill="#eeeeee" stroke="none" font-family="Arial" font-size="24px" font-style="normal" font-weight="normal" text-decoration="none" x="0" y="0">UNREGISTERED</text><text fill="#eeeeee" stroke="none" font-family="Arial" font-size="24px" font-style="normal" font-weight="normal" text-decoration="none" x="0" y="30">UNREGISTERED</text><text fill="#eeeeee" stroke="none" font-family="Arial" font-size="24px" font-style="normal" font-weight="normal" text-decoration="none" x="0" y="60">UNREGISTERED</text><text fill="#eeeeee" stroke="none" font-family="Arial" font-size="24px" font-style="normal" font-weight="normal" text-decoration="none" x="0" y="90">UNREGISTERED</text><text fill="#eeeeee" stroke="none" font-family="Arial" font-size="24px" font-style="normal" font-weight="normal" text-decoration="none" x="0" y="120">UNREGISTERED</text><text fill="#eeeeee" stroke="none" font-family="Arial" font-size="24px" font-style="normal" font-weight="normal" text-decoration="none" x="0" y="150">UNREGISTERED</text><text fill="#eeeeee" stroke="none" font-family="Arial" font-size="24px" font-style="normal" font-weight="normal" text-decoration="none" x="0" y="180">UNREGISTERED</text><text fill="#eeeeee" stroke="none" font-family="Arial" font-size="24px" font-style="normal" font-weight="normal" text-decoration="none" x="0" y="210">UNREGISTERED</text><text fill="#eeeeee" stroke="none" font-family="Arial" font-size="24px" font-style="normal" font-weight="normal" text-decoration="none" x="0" y="240">UNREGISTERED</text><text fill="#eeeeee" stroke="none" font-family="Arial" font-size="24px" font-style="normal" font-weight="normal" text-decoration="none" x="0" y="270">UNREGISTERED</text><text fill="#eeeeee" stroke="none" font-family="Arial" font-size="24px" font-style="normal" font-weight="normal" text-decoration="none" x="200" y="0">UNREGISTERED</text><text fill="#eeeeee" stroke="none" font-family="Arial" font-size="24px" font-style="normal" font-weight="normal" text-decoration="none" x="200" y="30">UNREGISTERED</text><text fill="#eeeeee" stroke="none" font-family="Arial" font-size="24px" font-style="normal" font-weight="normal" text-decoration="none" x="200" y="60">UNREGISTERED</text><text fill="#eeeeee" stroke="none" font-family="Arial" font-size="24px" font-style="normal" font-weight="normal" text-decoration="none" x="200" y="90">UNREGISTERED</text><text fill="#eeeeee" stroke="none" font-family="Arial" font-size="24px" font-style="normal" font-weight="normal" text-decoration="none" x="200" y="120">UNREGISTERED</text><text fill="#eeeeee" stroke="none" font-family="Arial" font-size="24px" font-style="normal" font-weight="normal" text-decoration="none" x="200" y="150">UNREGISTERED</text><text fill="#eeeeee" stroke="none" font-family="Arial" font-size="24px" font-style="normal" font-weight="normal" text-decoration="none" x="200" y="180">UNREGISTERED</text><text fill="#eeeeee" stroke="none" font-family="Arial" font-size="24px" font-style="normal" font-weight="normal" text-decoration="none" x="200" y="210">UNREGISTERED</text><text fill="#eeeeee" stroke="none" font-family="Arial" font-size="24px" font-style="normal" font-weight="normal" text-decoration="none" x="200" y="240">UNREGISTERED</text><text fill="#eeeeee" stroke="none" font-family="Arial" font-size="24px" font-style="normal" font-weight="normal" text-decoration="none" x="200" y="270">UNREGISTERED</text><text fill="#eeeeee" stroke="none" font-family="Arial" font-size="24px" font-style="normal" font-weight="normal" text-decoration="none" x="400" y="0">UNREGISTERED</text><text fill="#eeeeee" stroke="none" font-family="Arial" font-size="24px" font-style="normal" font-weight="normal" text-decoration="none" x="400" y="30">UNREGISTERED</text><text fill="#eeeeee" stroke="none" font-family="Arial" font-size="24px" font-style="normal" font-weight="normal" text-decoration="none" x="400" y="60">UNREGISTERED</text><text fill="#eeeeee" stroke="none" font-family="Arial" font-size="24px" font-style="normal" font-weight="normal" text-decoration="none" x="400" y="90">UNREGISTERED</text><text fill="#eeeeee" stroke="none" font-family="Arial" font-size="24px" font-style="normal" font-weight="normal" text-decoration="none" x="400" y="120">UNREGISTERED</text><text fill="#eeeeee" stroke="none" font-family="Arial" font-size="24px" font-style="normal" font-weight="normal" text-decoration="none" x="400" y="150">UNREGISTERED</text><text fill="#eeeeee" stroke="none" font-family="Arial" font-size="24px" font-style="normal" font-weight="normal" text-decoration="none" x="400" y="180">UNREGISTERED</text><text fill="#eeeeee" stroke="none" font-family="Arial" font-size="24px" font-style="normal" font-weight="normal" text-decoration="none" x="400" y="210">UNREGISTERED</text><text fill="#eeeeee" stroke="none" font-family="Arial" font-size="24px" font-style="normal" font-weight="normal" text-decoration="none" x="400" y="240">UNREGISTERED</text><text fill="#eeeeee" stroke="none" font-family="Arial" font-size="24px" font-style="normal" font-weight="normal" text-decoration="none" x="400" y="270">UNREGISTERED</text><g transform="translate(-190,-110) scale(1,1)"><rect fill="#C0C0C0" stroke="none" x="207" y="135" width="72.2353515625" height="87" opacity="0.2"/></g><g transform="translate(-190,-110) scale(1,1)"><rect fill="#ffffff" stroke="none" x="200" y="128" width="72.2353515625" height="87"/></g><g transform="translate(-190,-110) scale(1,1)"><path fill="none" stroke="#000000" d="M 200 128 L 272.2353515625 128 L 272.2353515625 215 L 200 215 L 200 128 Z Z" stroke-miterlimit="10"/></g><g transform="translate(-190,-110) scale(1,1)"><path fill="none" stroke="#000000" d="M 200 153 L 272.2353515625 153" stroke-miterlimit="10"/></g><g transform="translate(-190,-110) scale(1,1)"><path fill="none" stroke="#000000" d="M 200 206 L 272.2353515625 206" stroke-miterlimit="10"/></g><g transform="translate(-190,-110) scale(1,1)"><g><path fill="none" stroke="none"/><text fill="#000000" stroke="none" font-family="Arial" font-size="13px" font-style="normal" font-weight="bold" text-decoration="none" x="222.384521484375" y="147.5">login</text></g></g><g transform="translate(-190,-110) scale(1,1)"><g><path fill="none" stroke="none"/><text fill="#000000" stroke="none" font-family="Arial" font-size="13px" font-style="normal" font-weight="normal" text-decoration="none" x="205" y="170.5">+id</text></g></g><g transform="translate(-190,-110) scale(1,1)"><g><path fill="none" stroke="none"/><text fill="#000000" stroke="none" font-family="Arial" font-size="13px" font-style="normal" font-weight="normal" text-decoration="none" x="205" y="185.5">+usuario</text></g></g><g transform="translate(-190,-110) scale(1,1)"><g><path fill="none" stroke="none"/><text fill="#000000" stroke="none" font-family="Arial" font-size="13px" font-style="normal" font-weight="normal" text-decoration="none" x="205" y="200.5">+pass</text></g></g><g transform="translate(-190,-110) scale(1,1)"><rect fill="#C0C0C0" stroke="none" x="367" y="127" width="72.2353515625" height="102" opacity="0.2"/></g><g transform="translate(-190,-110) scale(1,1)"><rect fill="#ffffff" stroke="none" x="360" y="120" width="72.2353515625" height="102"/></g><g transform="translate(-190,-110) scale(1,1)"><path fill="none" stroke="#000000" d="M 360 120 L 432.2353515625 120 L 432.2353515625 222 L 360 222 L 360 120 Z Z" stroke-miterlimit="10"/></g><g transform="translate(-190,-110) scale(1,1)"><path fill="none" stroke="#000000" d="M 360 145 L 432.2353515625 145" stroke-miterlimit="10"/></g><g transform="translate(-190,-110) scale(1,1)"><path fill="none" stroke="#000000" d="M 360 213 L 432.2353515625 213" stroke-miterlimit="10"/></g><g transform="translate(-190,-110) scale(1,1)"><g><path fill="none" stroke="none"/><text fill="#000000" stroke="none" font-family="Arial" font-size="13px" font-style="normal" font-weight="bold" text-decoration="none" x="370.822265625" y="139.5">producto</text></g></g><g transform="translate(-190,-110) scale(1,1)"><g><path fill="none" stroke="none"/><text fill="#000000" stroke="none" font-family="Arial" font-size="13px" font-style="normal" font-weight="normal" text-decoration="none" x="365" y="162.5">+id</text></g></g><g transform="translate(-190,-110) scale(1,1)"><g><path fill="none" stroke="none"/><text fill="#000000" stroke="none" font-family="Arial" font-size="13px" font-style="normal" font-weight="normal" text-decoration="none" x="365" y="177.5">+nombre</text></g></g><g transform="translate(-190,-110) scale(1,1)"><g><path fill="none" stroke="none"/><text fill="#000000" stroke="none" font-family="Arial" font-size="13px" font-style="normal" font-weight="normal" text-decoration="none" x="365" y="192.5">+precio</text></g></g><g transform="translate(-190,-110) scale(1,1)"><g><path fill="none" stroke="none"/><text fill="#000000" stroke="none" font-family="Arial" font-size="13px" font-style="normal" font-weight="normal" text-decoration="none" x="365" y="207.5">+stock</text></g></g><g transform="translate(-190,-110) scale(1,1)"><path fill="none" stroke="#000000" d="M 273 171 L 359 171" stroke-miterlimit="10"/></g><g transform="translate(-190,-110) scale(1,1)"><rect fill="#C0C0C0" stroke="none" x="367" y="271" width="72.2353515625" height="117" opacity="0.2"/></g><g transform="translate(-190,-110) scale(1,1)"><rect fill="#ffffff" stroke="none" x="360" y="264" width="72.2353515625" height="117"/></g><g transform="translate(-190,-110) scale(1,1)"><path fill="none" stroke="#000000" d="M 360 264 L 432.2353515625 264 L 432.2353515625 381 L 360 381 L 360 264 Z Z" stroke-miterlimit="10"/></g><g transform="translate(-190,-110) scale(1,1)"><path fill="none" stroke="#000000" d="M 360 289 L 432.2353515625 289" stroke-miterlimit="10"/></g><g transform="translate(-190,-110) scale(1,1)"><path fill="none" stroke="#000000" d="M 360 372 L 432.2353515625 372" stroke-miterlimit="10"/></g><g transform="translate(-190,-110) scale(1,1)"><g><path fill="none" stroke="none"/><text fill="#000000" stroke="none" font-family="Arial" font-size="13px" font-style="normal" font-weight="bold" text-decoration="none" x="376.963623046875" y="283.5">detalle</text></g></g><g transform="translate(-190,-110) scale(1,1)"><g><path fill="none" stroke="none"/><text fill="#000000" stroke="none" font-family="Arial" font-size="13px" font-style="normal" font-weight="normal" text-decoration="none" x="365" y="306.5">+id</text></g></g><g transform="translate(-190,-110) scale(1,1)"><g><path fill="none" stroke="none"/><text fill="#000000" stroke="none" font-family="Arial" font-size="13px" font-style="normal" font-weight="normal" text-decoration="none" x="365" y="321.5">+venta</text></g></g><g transform="translate(-190,-110) scale(1,1)"><g><path fill="none" stroke="none"/><text fill="#000000" stroke="none" font-family="Arial" font-size="13px" font-style="normal" font-weight="normal" text-decoration="none" x="365" y="336.5">+producto</text></g></g><g transform="translate(-190,-110) scale(1,1)"><g><path fill="none" stroke="none"/><text fill="#000000" stroke="none" font-family="Arial" font-size="13px" font-style="normal" font-weight="normal" text-decoration="none" x="365" y="351.5">+cantidad</text></g></g><g transform="translate(-190,-110) scale(1,1)"><g><path fill="none" stroke="none"/><text fill="#000000" stroke="none" font-family="Arial" font-size="13px" font-style="normal" font-weight="normal" text-decoration="none" x="365" y="366.5">+subtotal</text></g></g><g transform="translate(-190,-110) scale(1,1)"><path fill="none" stroke="#000000" d="M 396 223 L 396 263" stroke-miterlimit="10"/></g><g transform="translate(-190,-110) scale(1,1)"><rect fill="#C0C0C0" stroke="none" x="535" y="287" width="72.2353515625" height="87" opacity="0.2"/></g><g transform="translate(-190,-110) scale(1,1)"><rect fill="#ffffff" stroke="none" x="528" y="280" width="72.2353515625" height="87"/></g><g transform="translate(-190,-110) scale(1,1)"><path fill="none" stroke="#000000" d="M 528 280 L 600.2353515625 280 L 600.2353515625 367 L 528 367 L 528 280 Z Z" stroke-miterlimit="10"/></g><g transform="translate(-190,-110) scale(1,1)"><path fill="none" stroke="#000000" d="M 528 305 L 600.2353515625 305" stroke-miterlimit="10"/></g><g transform="translate(-190,-110) scale(1,1)"><path fill="none" stroke="#000000" d="M 528 358 L 600.2353515625 358" stroke-miterlimit="10"/></g><g transform="translate(-190,-110) scale(1,1)"><g><path fill="none" stroke="none"/><text fill="#000000" stroke="none" font-family="Arial" font-size="13px" font-style="normal" font-weight="bold" text-decoration="none" x="548.216796875" y="299.5">venta</text></g></g><g transform="translate(-190,-110) scale(1,1)"><g><path fill="none" stroke="none"/><text fill="#000000" stroke="none" font-family="Arial" font-size="13px" font-style="normal" font-weight="normal" text-decoration="none" x="533" y="322.5">+id</text></g></g><g transform="translate(-190,-110) scale(1,1)"><g><path fill="none" stroke="none"/><text fill="#000000" stroke="none" font-family="Arial" font-size="13px" font-style="normal" font-weight="normal" text-decoration="none" x="533" y="337.5">+fecha</text></g></g><g transform="translate(-190,-110) scale(1,1)"><g><path fill="none" stroke="none"/><text fill="#000000" stroke="none" font-family="Arial" font-size="13px" font-style="normal" font-weight="normal" text-decoration="none" x="533" y="352.5">+total</text></g></g><g transform="translate(-190,-110) scale(1,1)"><path fill="none" stroke="#000000" d="M 433 322 L 527 323" stroke-miterlimit="10"/></g></g></svg>